<svg width="486" height="138" viewBox="0 0 486 138" fill="none" xmlns="http://www.w3.org/2000/svg">
<rect width="486" height="137.077" rx="20" fill="#4B91F1"/>
<path d="M96.4509 64.2386C96.1668 63.3182 95.7747 62.4943 95.2747 61.767C94.7861 61.0284 94.1952 60.3977 93.502 59.875C92.8202 59.3523 92.0361 58.9602 91.1497 58.6989C90.2634 58.4261 89.2975 58.2898 88.252 58.2898C86.377 58.2898 84.7066 58.7614 83.2406 59.7045C81.7747 60.6477 80.6213 62.0341 79.7804 63.8636C78.9509 65.6818 78.5361 67.8977 78.5361 70.5114C78.5361 73.1477 78.9509 75.3807 79.7804 77.2102C80.61 79.0398 81.7634 80.4318 83.2406 81.3864C84.7179 82.3295 86.4338 82.8011 88.3884 82.8011C90.1611 82.8011 91.6952 82.4602 92.9906 81.7784C94.2975 81.0966 95.3031 80.1307 96.0077 78.8807C96.7122 77.6193 97.0645 76.142 97.0645 74.4489L98.4963 74.6705H89.0191V69.7273H103.184V73.9205C103.184 76.9091 102.547 79.4943 101.275 81.6761C100.002 83.858 98.252 85.5398 96.0247 86.7216C93.7975 87.892 91.2406 88.4773 88.3543 88.4773C85.1384 88.4773 82.3145 87.7557 79.8827 86.3125C77.4622 84.858 75.5702 82.7955 74.2066 80.125C72.8543 77.4432 72.1781 74.2614 72.1781 70.5795C72.1781 67.7614 72.5759 65.2443 73.3713 63.0284C74.1781 60.8125 75.3031 58.9318 76.7463 57.3864C78.1895 55.8295 79.8827 54.6477 81.8259 53.8409C83.7691 53.0227 85.8827 52.6136 88.1668 52.6136C90.0986 52.6136 91.8997 52.8977 93.5702 53.4659C95.2406 54.0227 96.7236 54.8182 98.019 55.8523C99.3259 56.8864 100.4 58.1136 101.241 59.5341C102.082 60.9545 102.633 62.5227 102.894 64.2386H96.4509ZM120.617 88.5114C117.992 88.5114 115.725 87.9659 113.816 86.875C111.918 85.7727 110.458 84.2159 109.435 82.2045C108.413 80.1818 107.901 77.8011 107.901 75.0625C107.901 72.3693 108.413 70.0057 109.435 67.9716C110.469 65.9261 111.913 64.3352 113.765 63.1989C115.617 62.0511 117.793 61.4773 120.293 61.4773C121.907 61.4773 123.43 61.7386 124.861 62.2614C126.305 62.7727 127.577 63.5682 128.68 64.6477C129.793 65.7273 130.668 67.1023 131.305 68.7727C131.941 70.4318 132.259 72.4091 132.259 74.7045V76.5966H110.799V72.4375H126.344C126.333 71.2557 126.077 70.2045 125.577 69.2841C125.077 68.3523 124.378 67.6193 123.481 67.0852C122.594 66.5511 121.56 66.2841 120.378 66.2841C119.117 66.2841 118.009 66.5909 117.055 67.2045C116.1 67.8068 115.356 68.6023 114.822 69.5909C114.299 70.5682 114.032 71.642 114.02 72.8125V76.4432C114.02 77.9659 114.299 79.2727 114.856 80.3636C115.413 81.4432 116.191 82.2727 117.191 82.8523C118.191 83.4205 119.361 83.7045 120.702 83.7045C121.6 83.7045 122.413 83.5795 123.14 83.3295C123.867 83.0682 124.498 82.6875 125.032 82.1875C125.566 81.6875 125.969 81.0682 126.242 80.3295L132.003 80.9773C131.64 82.5 130.947 83.8295 129.924 84.9659C128.913 86.0909 127.617 86.9659 126.038 87.5909C124.458 88.2045 122.651 88.5114 120.617 88.5114ZM150.553 61.8182V66.5909H135.502V61.8182H150.553ZM139.218 55.5455H145.388V80.125C145.388 80.9545 145.513 81.5909 145.763 82.0341C146.025 82.4659 146.366 82.7614 146.786 82.9205C147.207 83.0795 147.672 83.1591 148.184 83.1591C148.57 83.1591 148.922 83.1307 149.241 83.0739C149.57 83.017 149.82 82.9659 149.991 82.9205L151.03 87.7443C150.701 87.858 150.229 87.983 149.616 88.1193C149.013 88.2557 148.275 88.3352 147.4 88.358C145.854 88.4034 144.462 88.1705 143.224 87.6591C141.985 87.1364 141.002 86.3295 140.275 85.2386C139.559 84.1477 139.207 82.7841 139.218 81.1477V55.5455ZM186.864 62.6875C186.705 61.1989 186.035 60.0398 184.853 59.2102C183.682 58.3807 182.16 57.9659 180.285 57.9659C178.966 57.9659 177.836 58.1648 176.893 58.5625C175.949 58.9602 175.228 59.5 174.728 60.1818C174.228 60.8636 173.972 61.642 173.961 62.517C173.961 63.2443 174.126 63.875 174.455 64.4091C174.796 64.9432 175.256 65.3977 175.836 65.7727C176.415 66.1364 177.057 66.4432 177.762 66.6932C178.466 66.9432 179.177 67.1534 179.893 67.3239L183.165 68.142C184.484 68.4489 185.751 68.8636 186.966 69.3864C188.194 69.9091 189.29 70.5682 190.256 71.3636C191.234 72.1591 192.006 73.1193 192.574 74.2443C193.143 75.3693 193.427 76.6875 193.427 78.1989C193.427 80.2443 192.904 82.0455 191.859 83.6023C190.813 85.1477 189.302 86.358 187.324 87.233C185.359 88.0966 182.978 88.5284 180.182 88.5284C177.466 88.5284 175.109 88.108 173.109 87.267C171.12 86.4261 169.563 85.1989 168.438 83.5852C167.324 81.9716 166.722 80.0057 166.631 77.6875H172.853C172.944 78.9034 173.319 79.9148 173.978 80.7216C174.637 81.5284 175.495 82.1307 176.552 82.5284C177.62 82.9261 178.813 83.125 180.131 83.125C181.506 83.125 182.711 82.9205 183.745 82.5114C184.79 82.0909 185.609 81.5114 186.199 80.7727C186.79 80.0227 187.091 79.1477 187.103 78.1477C187.091 77.2386 186.824 76.4886 186.302 75.8977C185.779 75.2955 185.046 74.7955 184.103 74.3977C183.171 73.9886 182.08 73.625 180.83 73.3068L176.859 72.2841C173.984 71.5455 171.711 70.4261 170.04 68.9261C168.381 67.4148 167.552 65.4091 167.552 62.9091C167.552 60.8523 168.109 59.0511 169.222 57.5057C170.347 55.9602 171.876 54.7614 173.807 53.9091C175.739 53.0455 177.927 52.6136 180.37 52.6136C182.847 52.6136 185.018 53.0455 186.881 53.9091C188.756 54.7614 190.228 55.9489 191.296 57.4716C192.364 58.983 192.915 60.7216 192.949 62.6875H186.864ZM211.866 61.8182V66.5909H196.815V61.8182H211.866ZM200.53 55.5455H206.701V80.125C206.701 80.9545 206.826 81.5909 207.076 82.0341C207.337 82.4659 207.678 82.7614 208.099 82.9205C208.519 83.0795 208.985 83.1591 209.496 83.1591C209.883 83.1591 210.235 83.1307 210.553 83.0739C210.883 83.017 211.133 82.9659 211.303 82.9205L212.343 87.7443C212.013 87.858 211.542 87.983 210.928 88.1193C210.326 88.2557 209.587 88.3352 208.712 88.358C207.167 88.4034 205.775 88.1705 204.536 87.6591C203.297 87.1364 202.315 86.3295 201.587 85.2386C200.871 84.1477 200.519 82.7841 200.53 81.1477V55.5455ZM224.56 88.5284C222.901 88.5284 221.407 88.233 220.077 87.642C218.759 87.0398 217.714 86.1534 216.941 84.983C216.18 83.8125 215.799 82.3693 215.799 80.6534C215.799 79.1761 216.072 77.9545 216.617 76.9886C217.163 76.0227 217.907 75.25 218.85 74.6705C219.793 74.0909 220.856 73.6534 222.038 73.358C223.231 73.0511 224.464 72.8295 225.736 72.6932C227.27 72.5341 228.515 72.392 229.469 72.267C230.424 72.1307 231.117 71.9261 231.549 71.6534C231.992 71.3693 232.214 70.9318 232.214 70.3409V70.2386C232.214 68.9545 231.833 67.9602 231.072 67.2557C230.31 66.5511 229.214 66.1989 227.782 66.1989C226.27 66.1989 225.072 66.5284 224.185 67.1875C223.31 67.8466 222.719 68.625 222.413 69.5227L216.651 68.7045C217.106 67.1136 217.856 65.7841 218.901 64.7159C219.947 63.6364 221.225 62.8295 222.736 62.2955C224.248 61.75 225.918 61.4773 227.748 61.4773C229.009 61.4773 230.265 61.625 231.515 61.9205C232.765 62.2159 233.907 62.7045 234.941 63.3864C235.975 64.0568 236.805 64.9716 237.43 66.1307C238.066 67.2898 238.384 68.7386 238.384 70.4773V88H232.452V84.4034H232.248C231.873 85.1307 231.344 85.8125 230.663 86.4489C229.992 87.0739 229.145 87.5795 228.123 87.9659C227.111 88.3409 225.924 88.5284 224.56 88.5284ZM226.163 83.9943C227.401 83.9943 228.475 83.75 229.384 83.2614C230.293 82.7614 230.992 82.1023 231.481 81.2841C231.981 80.4659 232.231 79.5739 232.231 78.608V75.5227C232.038 75.6818 231.708 75.8295 231.242 75.9659C230.788 76.1023 230.276 76.2216 229.708 76.3239C229.14 76.4261 228.577 76.517 228.02 76.5966C227.464 76.6761 226.981 76.7443 226.572 76.8011C225.651 76.9261 224.827 77.1307 224.1 77.4148C223.373 77.6989 222.799 78.0966 222.378 78.608C221.958 79.108 221.748 79.7557 221.748 80.5511C221.748 81.6875 222.163 82.5455 222.992 83.125C223.822 83.7045 224.878 83.9943 226.163 83.9943ZM244.589 88V61.8182H250.572V66.1818H250.844C251.322 64.6705 252.14 63.5057 253.299 62.6875C254.469 61.858 255.805 61.4432 257.305 61.4432C257.645 61.4432 258.026 61.4602 258.447 61.4943C258.878 61.517 259.236 61.5568 259.52 61.6136V67.2898C259.259 67.1989 258.844 67.1193 258.276 67.0511C257.719 66.9716 257.18 66.9318 256.657 66.9318C255.532 66.9318 254.52 67.1761 253.623 67.6648C252.736 68.142 252.038 68.8068 251.526 69.6591C251.015 70.5114 250.759 71.4943 250.759 72.608V88H244.589ZM278.1 61.8182V66.5909H263.049V61.8182H278.1ZM266.765 55.5455H272.935V80.125C272.935 80.9545 273.06 81.5909 273.31 82.0341C273.572 82.4659 273.913 82.7614 274.333 82.9205C274.753 83.0795 275.219 83.1591 275.731 83.1591C276.117 83.1591 276.469 83.1307 276.788 83.0739C277.117 83.017 277.367 82.9659 277.538 82.9205L278.577 87.7443C278.248 87.858 277.776 87.983 277.163 88.1193C276.56 88.2557 275.822 88.3352 274.947 88.358C273.401 88.4034 272.009 88.1705 270.77 87.6591C269.532 87.1364 268.549 86.3295 267.822 85.2386C267.106 84.1477 266.753 82.7841 266.765 81.1477V55.5455ZM294.57 88.5114C291.945 88.5114 289.678 87.9659 287.769 86.875C285.871 85.7727 284.411 84.2159 283.388 82.2045C282.366 80.1818 281.854 77.8011 281.854 75.0625C281.854 72.3693 282.366 70.0057 283.388 67.9716C284.422 65.9261 285.866 64.3352 287.718 63.1989C289.57 62.0511 291.746 61.4773 294.246 61.4773C295.86 61.4773 297.383 61.7386 298.815 62.2614C300.258 62.7727 301.53 63.5682 302.633 64.6477C303.746 65.7273 304.621 67.1023 305.258 68.7727C305.894 70.4318 306.212 72.4091 306.212 74.7045V76.5966H284.752V72.4375H300.297C300.286 71.2557 300.03 70.2045 299.53 69.2841C299.03 68.3523 298.332 67.6193 297.434 67.0852C296.547 66.5511 295.513 66.2841 294.332 66.2841C293.07 66.2841 291.962 66.5909 291.008 67.2045C290.053 67.8068 289.309 68.6023 288.775 69.5909C288.252 70.5682 287.985 71.642 287.974 72.8125V76.4432C287.974 77.9659 288.252 79.2727 288.809 80.3636C289.366 81.4432 290.144 82.2727 291.144 82.8523C292.144 83.4205 293.315 83.7045 294.655 83.7045C295.553 83.7045 296.366 83.5795 297.093 83.3295C297.82 83.0682 298.451 82.6875 298.985 82.1875C299.519 81.6875 299.922 81.0682 300.195 80.3295L305.957 80.9773C305.593 82.5 304.9 83.8295 303.877 84.9659C302.866 86.0909 301.57 86.9659 299.991 87.5909C298.411 88.2045 296.604 88.5114 294.57 88.5114ZM321.148 88.4602C319.092 88.4602 317.251 87.9318 315.626 86.875C314.001 85.8182 312.717 84.2841 311.773 82.2727C310.83 80.2614 310.359 77.8182 310.359 74.9432C310.359 72.0341 310.836 69.5795 311.79 67.5795C312.756 65.5682 314.057 64.0511 315.694 63.0284C317.33 61.9943 319.154 61.4773 321.165 61.4773C322.699 61.4773 323.961 61.7386 324.949 62.2614C325.938 62.7727 326.722 63.392 327.302 64.1193C327.881 64.8352 328.33 65.5114 328.648 66.1477H328.904V53.0909H335.092V88H329.023V83.875H328.648C328.33 84.5114 327.87 85.1875 327.268 85.9034C326.665 86.608 325.87 87.2102 324.881 87.7102C323.893 88.2102 322.648 88.4602 321.148 88.4602ZM322.87 83.3977C324.177 83.3977 325.29 83.0455 326.211 82.3409C327.131 81.625 327.83 80.6307 328.307 79.358C328.785 78.0852 329.023 76.6023 329.023 74.9091C329.023 73.2159 328.785 71.7443 328.307 70.4943C327.842 69.2443 327.148 68.2727 326.228 67.5795C325.319 66.8864 324.199 66.5398 322.87 66.5398C321.495 66.5398 320.347 66.8977 319.427 67.6136C318.506 68.3295 317.813 69.3182 317.347 70.5795C316.881 71.8409 316.648 73.2841 316.648 74.9091C316.648 76.5455 316.881 78.0057 317.347 79.2898C317.824 80.5625 318.523 81.5682 319.444 82.3068C320.376 83.0341 321.518 83.3977 322.87 83.3977Z" fill="white"/>
<path d="M383.665 90.875C383.665 90.0465 383.995 89.2522 384.581 88.6667L400.565 72.6834C401.048 72.1997 401.432 71.6255 401.694 70.9935C401.956 70.3615 402.091 69.6841 402.091 69C402.091 68.3159 401.956 67.6386 401.694 67.0066C401.432 66.3746 401.048 65.8004 400.565 65.3167L384.602 49.3438C384.033 48.7544 383.718 47.965 383.725 47.1457C383.732 46.3263 384.061 45.5425 384.64 44.9631C385.22 44.3837 386.003 44.055 386.823 44.0479C387.642 44.0408 388.432 44.3558 389.021 44.925L404.983 60.8854C407.13 63.036 408.335 65.9502 408.335 68.9886C408.335 72.0269 407.13 74.9412 404.983 77.0917L389 93.075C388.564 93.5117 388.008 93.8094 387.402 93.9304C386.797 94.0514 386.169 93.9904 385.598 93.7551C385.028 93.5197 384.539 93.1206 384.195 92.608C383.851 92.0954 383.666 91.4924 383.665 90.875V90.875Z" fill="white"/>
</svg>
