<svg width="56" height="56" viewBox="0 0 56 56" fill="none" xmlns="http://www.w3.org/2000/svg">
<path fill-rule="evenodd" clip-rule="evenodd" d="M21 7C19.067 7 17.5 8.567 17.5 10.5H14C11.1005 10.5 8.75 12.8505 8.75 15.75V43.75C8.75 46.6495 11.1005 49 14 49H19.25C20.2165 49 21 48.2165 21 47.25C21 46.2835 20.2165 45.5 19.25 45.5H14C13.0335 45.5 12.25 44.7165 12.25 43.75V15.75C12.25 14.7835 13.0335 14 14 14H17.5C17.5 15.933 19.067 17.5 21 17.5H31.5C33.433 17.5 35 15.933 35 14H38.5C39.4665 14 40.25 14.7835 40.25 15.75V21C40.25 21.9665 41.0335 22.75 42 22.75C42.9665 22.75 43.75 21.9665 43.75 21V15.75C43.75 12.8505 41.3995 10.5 38.5 10.5H35C35 8.567 33.433 7 31.5 7H30.1629C29.2031 5.92779 27.8063 5.25 26.25 5.25C24.6937 5.25 23.2969 5.92779 22.3371 7H21ZM26.25 8.75C25.6045 8.75 25.0383 9.09863 24.733 9.62627L24.2276 10.5H21V14H31.5V10.5H28.2724L27.767 9.62627C27.4617 9.09863 26.8955 8.75 26.25 8.75Z" fill="#4B91F1"/>
<path fill-rule="evenodd" clip-rule="evenodd" d="M41.3114 25.0126C40.9832 24.6844 40.5381 24.5 40.074 24.5C39.6098 24.5 39.1647 24.6844 38.8365 25.0126L25.683 38.1661C25.4608 38.3883 25.3025 38.6663 25.2248 38.9708L23.5291 45.6163C23.3763 46.2149 23.5505 46.8496 23.9873 47.2864C24.4241 47.7232 25.0589 47.8974 25.6574 47.7447L32.3029 46.0489C32.6074 45.9712 32.8854 45.8129 33.1077 45.5907L46.2612 32.4372C46.9446 31.7538 46.9446 30.6457 46.2612 29.9623L41.3114 25.0126ZM28.4974 40.3014L40.074 28.7249L42.5488 31.1997L30.9723 42.7763L27.6496 43.6242L28.4974 40.3014Z" fill="#4B91F1"/>
</svg>
