<svg width="486" height="138" viewBox="0 0 486 138" fill="none" xmlns="http://www.w3.org/2000/svg">
<rect width="486" height="137.077" rx="20" fill="#4B91F1"/>
<path d="M171.246 88H159.416V53.0909H171.484C174.95 53.0909 177.927 53.7898 180.416 55.1875C182.916 56.5739 184.837 58.5682 186.177 61.1705C187.518 63.7727 188.189 66.8864 188.189 70.5114C188.189 74.1477 187.513 77.2727 186.16 79.8864C184.819 82.5 182.882 84.5057 180.348 85.9034C177.825 87.3011 174.791 88 171.246 88ZM165.74 82.5284H170.939C173.371 82.5284 175.399 82.0852 177.024 81.1989C178.649 80.3011 179.871 78.9659 180.689 77.1932C181.507 75.4091 181.916 73.1818 181.916 70.5114C181.916 67.8409 181.507 65.625 180.689 63.8636C179.871 62.0909 178.66 60.767 177.058 59.892C175.467 59.0057 173.49 58.5625 171.126 58.5625H165.74V82.5284ZM205.345 88.5114C202.788 88.5114 200.572 87.9489 198.697 86.8239C196.822 85.6989 195.368 84.125 194.334 82.1023C193.311 80.0795 192.8 77.7159 192.8 75.0114C192.8 72.3068 193.311 69.9375 194.334 67.9034C195.368 65.8693 196.822 64.2898 198.697 63.1648C200.572 62.0398 202.788 61.4773 205.345 61.4773C207.902 61.4773 210.118 62.0398 211.993 63.1648C213.868 64.2898 215.317 65.8693 216.339 67.9034C217.373 69.9375 217.891 72.3068 217.891 75.0114C217.891 77.7159 217.373 80.0795 216.339 82.1023C215.317 84.125 213.868 85.6989 211.993 86.8239C210.118 87.9489 207.902 88.5114 205.345 88.5114ZM205.379 83.5682C206.765 83.5682 207.925 83.1875 208.856 82.4261C209.788 81.6534 210.481 80.6193 210.936 79.3239C211.402 78.0284 211.635 76.5852 211.635 74.9943C211.635 73.392 211.402 71.9432 210.936 70.6477C210.481 69.3409 209.788 68.3011 208.856 67.5284C207.925 66.7557 206.765 66.3693 205.379 66.3693C203.959 66.3693 202.777 66.7557 201.834 67.5284C200.902 68.3011 200.203 69.3409 199.737 70.6477C199.283 71.9432 199.055 73.392 199.055 74.9943C199.055 76.5852 199.283 78.0284 199.737 79.3239C200.203 80.6193 200.902 81.6534 201.834 82.4261C202.777 83.1875 203.959 83.5682 205.379 83.5682ZM227.781 88L220.383 61.8182H226.673L231.275 80.2273H231.514L236.219 61.8182H242.44L247.145 80.125H247.4L251.935 61.8182H258.241L250.827 88H244.4L239.491 70.3068H239.133L234.224 88H227.781ZM268.72 72.6591V88H262.55V61.8182H268.447V66.267H268.754C269.356 64.8011 270.317 63.6364 271.635 62.7727C272.964 61.9091 274.606 61.4773 276.561 61.4773C278.368 61.4773 279.942 61.8636 281.283 62.6364C282.635 63.4091 283.68 64.5284 284.419 65.9943C285.169 67.4602 285.538 69.2386 285.527 71.3295V88H279.356V72.2841C279.356 70.5341 278.902 69.1648 277.993 68.1761C277.095 67.1875 275.851 66.6932 274.26 66.6932C273.18 66.6932 272.22 66.9318 271.379 67.4091C270.55 67.875 269.896 68.5511 269.419 69.4375C268.953 70.3239 268.72 71.3977 268.72 72.6591ZM297.97 53.0909V88H291.8V53.0909H297.97ZM315.736 88.5114C313.179 88.5114 310.963 87.9489 309.088 86.8239C307.213 85.6989 305.758 84.125 304.724 82.1023C303.702 80.0795 303.19 77.7159 303.19 75.0114C303.19 72.3068 303.702 69.9375 304.724 67.9034C305.758 65.8693 307.213 64.2898 309.088 63.1648C310.963 62.0398 313.179 61.4773 315.736 61.4773C318.292 61.4773 320.508 62.0398 322.383 63.1648C324.258 64.2898 325.707 65.8693 326.73 67.9034C327.764 69.9375 328.281 72.3068 328.281 75.0114C328.281 77.7159 327.764 80.0795 326.73 82.1023C325.707 84.125 324.258 85.6989 322.383 86.8239C320.508 87.9489 318.292 88.5114 315.736 88.5114ZM315.77 83.5682C317.156 83.5682 318.315 83.1875 319.247 82.4261C320.179 81.6534 320.872 80.6193 321.327 79.3239C321.792 78.0284 322.025 76.5852 322.025 74.9943C322.025 73.392 321.792 71.9432 321.327 70.6477C320.872 69.3409 320.179 68.3011 319.247 67.5284C318.315 66.7557 317.156 66.3693 315.77 66.3693C314.349 66.3693 313.167 66.7557 312.224 67.5284C311.292 68.3011 310.594 69.3409 310.128 70.6477C309.673 71.9432 309.446 73.392 309.446 74.9943C309.446 76.5852 309.673 78.0284 310.128 79.3239C310.594 80.6193 311.292 81.6534 312.224 82.4261C313.167 83.1875 314.349 83.5682 315.77 83.5682ZM341.052 88.5284C339.393 88.5284 337.899 88.233 336.569 87.642C335.251 87.0398 334.206 86.1534 333.433 84.983C332.672 83.8125 332.291 82.3693 332.291 80.6534C332.291 79.1761 332.564 77.9545 333.109 76.9886C333.655 76.0227 334.399 75.25 335.342 74.6705C336.285 74.0909 337.348 73.6534 338.53 73.358C339.723 73.0511 340.956 72.8295 342.229 72.6932C343.763 72.5341 345.007 72.392 345.962 72.267C346.916 72.1307 347.609 71.9261 348.041 71.6534C348.484 71.3693 348.706 70.9318 348.706 70.3409V70.2386C348.706 68.9545 348.325 67.9602 347.564 67.2557C346.802 66.5511 345.706 66.1989 344.274 66.1989C342.763 66.1989 341.564 66.5284 340.677 67.1875C339.802 67.8466 339.212 68.625 338.905 69.5227L333.143 68.7045C333.598 67.1136 334.348 65.7841 335.393 64.7159C336.439 63.6364 337.717 62.8295 339.229 62.2955C340.74 61.75 342.41 61.4773 344.24 61.4773C345.501 61.4773 346.757 61.625 348.007 61.9205C349.257 62.2159 350.399 62.7045 351.433 63.3864C352.467 64.0568 353.297 64.9716 353.922 66.1307C354.558 67.2898 354.876 68.7386 354.876 70.4773V88H348.944V84.4034H348.74C348.365 85.1307 347.837 85.8125 347.155 86.4489C346.484 87.0739 345.638 87.5795 344.615 87.9659C343.604 88.3409 342.416 88.5284 341.052 88.5284ZM342.655 83.9943C343.893 83.9943 344.967 83.75 345.876 83.2614C346.785 82.7614 347.484 82.1023 347.973 81.2841C348.473 80.4659 348.723 79.5739 348.723 78.608V75.5227C348.53 75.6818 348.2 75.8295 347.734 75.9659C347.28 76.1023 346.768 76.2216 346.2 76.3239C345.632 76.4261 345.069 76.517 344.513 76.5966C343.956 76.6761 343.473 76.7443 343.064 76.8011C342.143 76.9261 341.319 77.1307 340.592 77.4148C339.865 77.6989 339.291 78.0966 338.871 78.608C338.45 79.108 338.24 79.7557 338.24 80.5511C338.24 81.6875 338.655 82.5455 339.484 83.125C340.314 83.7045 341.371 83.9943 342.655 83.9943ZM370.797 88.4602C368.74 88.4602 366.899 87.9318 365.274 86.875C363.649 85.8182 362.365 84.2841 361.422 82.2727C360.479 80.2614 360.007 77.8182 360.007 74.9432C360.007 72.0341 360.484 69.5795 361.439 67.5795C362.405 65.5682 363.706 64.0511 365.342 63.0284C366.979 61.9943 368.802 61.4773 370.814 61.4773C372.348 61.4773 373.609 61.7386 374.598 62.2614C375.587 62.7727 376.371 63.392 376.95 64.1193C377.53 64.8352 377.979 65.5114 378.297 66.1477H378.552V53.0909H384.74V88H378.672V83.875H378.297C377.979 84.5114 377.518 85.1875 376.916 85.9034C376.314 86.608 375.518 87.2102 374.53 87.7102C373.541 88.2102 372.297 88.4602 370.797 88.4602ZM372.518 83.3977C373.825 83.3977 374.939 83.0455 375.859 82.3409C376.78 81.625 377.479 80.6307 377.956 79.358C378.433 78.0852 378.672 76.6023 378.672 74.9091C378.672 73.2159 378.433 71.7443 377.956 70.4943C377.49 69.2443 376.797 68.2727 375.876 67.5795C374.967 66.8864 373.848 66.5398 372.518 66.5398C371.143 66.5398 369.996 66.8977 369.075 67.6136C368.155 68.3295 367.462 69.3182 366.996 70.5795C366.53 71.8409 366.297 73.2841 366.297 74.9091C366.297 76.5455 366.53 78.0057 366.996 79.2898C367.473 80.5625 368.172 81.5682 369.092 82.3068C370.024 83.0341 371.166 83.3977 372.518 83.3977Z" fill="white"/>
<path d="M84.4392 80.875C88.1004 84.5362 94.0363 84.5362 97.6975 80.8751L97.6976 80.875L104.389 74.1833C105.631 72.9843 105.665 71.006 104.466 69.7646C103.267 68.5231 101.289 68.4888 100.047 69.6878C100.021 69.7129 99.9957 69.7386 99.9706 69.7646L94.1726 75.5604L94.1247 47.125C94.1247 45.3991 92.7256 44 90.9997 44C89.2738 44 87.8747 45.3991 87.8747 47.125L87.9184 75.5146L82.1664 69.7625C80.925 68.5635 78.9467 68.5979 77.7476 69.8393C76.578 71.0503 76.578 72.9702 77.7476 74.1812L84.4392 80.875Z" fill="white"/>
<path d="M112.875 74.2083C111.149 74.2083 109.75 75.6074 109.75 77.3333V86.8978C109.749 87.3679 109.368 87.7488 108.898 87.7499H73.1021C72.6319 87.7487 72.2511 87.3679 72.25 86.8978V77.3333C72.25 75.6074 70.8509 74.2083 69.125 74.2083C67.3991 74.2083 66 75.6074 66 77.3333V86.8978C66.0046 90.8183 69.1816 93.9954 73.1021 94H108.898C112.818 93.9954 115.995 90.8183 116 86.8979V77.3334C116 75.6074 114.601 74.2083 112.875 74.2083Z" fill="white"/>
</svg>
