<svg width="295" height="56" viewBox="0 0 295 56" fill="none" xmlns="http://www.w3.org/2000/svg">
<path fill-rule="evenodd" clip-rule="evenodd" d="M21 7C19.067 7 17.5 8.567 17.5 10.5H14C11.1005 10.5 8.75 12.8505 8.75 15.75V43.75C8.75 46.6495 11.1005 49 14 49H19.25C20.2165 49 21 48.2165 21 47.25C21 46.2835 20.2165 45.5 19.25 45.5H14C13.0335 45.5 12.25 44.7165 12.25 43.75V15.75C12.25 14.7835 13.0335 14 14 14H17.5C17.5 15.933 19.067 17.5 21 17.5H31.5C33.433 17.5 35 15.933 35 14H38.5C39.4665 14 40.25 14.7835 40.25 15.75V21C40.25 21.9665 41.0335 22.75 42 22.75C42.9665 22.75 43.75 21.9665 43.75 21V15.75C43.75 12.8505 41.3995 10.5 38.5 10.5H35C35 8.567 33.433 7 31.5 7H30.1629C29.2031 5.92779 27.8063 5.25 26.25 5.25C24.6937 5.25 23.2969 5.92779 22.3371 7H21ZM26.25 8.75C25.6045 8.75 25.0383 9.09863 24.733 9.62627L24.2276 10.5H21V14H31.5V10.5H28.2724L27.767 9.62627C27.4617 9.09863 26.8955 8.75 26.25 8.75Z" fill="#4B91F1"/>
<path fill-rule="evenodd" clip-rule="evenodd" d="M41.3114 25.0126C40.9832 24.6844 40.5381 24.5 40.074 24.5C39.6098 24.5 39.1647 24.6844 38.8365 25.0126L25.683 38.1661C25.4608 38.3883 25.3025 38.6663 25.2248 38.9708L23.5291 45.6163C23.3763 46.2149 23.5505 46.8496 23.9873 47.2864C24.4241 47.7232 25.0589 47.8974 25.6574 47.7447L32.3029 46.0489C32.6074 45.9712 32.8854 45.8129 33.1077 45.5907L46.2612 32.4372C46.9446 31.7538 46.9446 30.6457 46.2612 29.9623L41.3114 25.0126ZM28.4974 40.3014L40.074 28.7249L42.5488 31.1997L30.9723 42.7763L27.6496 43.6242L28.4974 40.3014Z" fill="#4B91F1"/>
<path d="M62.9545 12.196V9.54545H76.8807V12.196H71.4858V27H68.3494V12.196H62.9545ZM78.0696 27V13.9091H81.0611V16.0909H81.1974C81.4361 15.3352 81.8452 14.7528 82.4247 14.3438C83.0099 13.929 83.6776 13.7216 84.4276 13.7216C84.598 13.7216 84.7884 13.7301 84.9986 13.7472C85.2145 13.7585 85.3935 13.7784 85.5355 13.8068V16.6449C85.4048 16.5994 85.1974 16.5597 84.9134 16.5256C84.6349 16.4858 84.3651 16.4659 84.1037 16.4659C83.5412 16.4659 83.0355 16.5881 82.5866 16.8324C82.1435 17.071 81.794 17.4034 81.5384 17.8295C81.2827 18.2557 81.1548 18.7472 81.1548 19.304V27H78.0696ZM91.1179 27.2642C90.2884 27.2642 89.5412 27.1165 88.8764 26.821C88.2173 26.5199 87.6946 26.0767 87.3082 25.4915C86.9276 24.9062 86.7372 24.1847 86.7372 23.3267C86.7372 22.5881 86.8736 21.9773 87.1463 21.4943C87.419 21.0114 87.7912 20.625 88.2628 20.3352C88.7344 20.0455 89.2656 19.8267 89.8565 19.679C90.4531 19.5256 91.0696 19.4148 91.706 19.3466C92.473 19.267 93.0952 19.196 93.5724 19.1335C94.0497 19.0653 94.3963 18.9631 94.6122 18.8267C94.8338 18.6847 94.9446 18.4659 94.9446 18.1705V18.1193C94.9446 17.4773 94.7543 16.9801 94.3736 16.6278C93.9929 16.2756 93.4446 16.0994 92.7287 16.0994C91.973 16.0994 91.3736 16.2642 90.9304 16.5938C90.4929 16.9233 90.1974 17.3125 90.044 17.7614L87.1634 17.3523C87.3906 16.5568 87.7656 15.892 88.2884 15.358C88.8111 14.8182 89.4503 14.4148 90.206 14.1477C90.9616 13.875 91.7969 13.7386 92.7116 13.7386C93.3423 13.7386 93.9702 13.8125 94.5952 13.9602C95.2202 14.108 95.7912 14.3523 96.3082 14.6932C96.8253 15.0284 97.2401 15.4858 97.5526 16.0653C97.8707 16.6449 98.0298 17.3693 98.0298 18.2386V27H95.0639V25.2017H94.9616C94.7741 25.5653 94.5099 25.9062 94.169 26.2244C93.8338 26.5369 93.4105 26.7898 92.8991 26.983C92.3935 27.1705 91.7997 27.2642 91.1179 27.2642ZM91.919 24.9972C92.5384 24.9972 93.0753 24.875 93.5298 24.6307C93.9844 24.3807 94.3338 24.0511 94.5781 23.642C94.8281 23.233 94.9531 22.7869 94.9531 22.304V20.7614C94.8565 20.8409 94.6918 20.9148 94.4588 20.983C94.2315 21.0511 93.9759 21.1108 93.6918 21.1619C93.4077 21.2131 93.1264 21.2585 92.848 21.2983C92.5696 21.3381 92.3281 21.3722 92.1236 21.4006C91.6634 21.4631 91.2514 21.5653 90.8878 21.7074C90.5241 21.8494 90.2372 22.0483 90.027 22.304C89.8168 22.554 89.7116 22.8778 89.7116 23.2756C89.7116 23.8438 89.919 24.2727 90.3338 24.5625C90.7486 24.8523 91.277 24.9972 91.919 24.9972ZM106.842 27.2557C105.536 27.2557 104.413 26.9688 103.476 26.3949C102.544 25.821 101.825 25.0284 101.32 24.017C100.82 23 100.57 21.8295 100.57 20.5057C100.57 19.1761 100.825 18.0028 101.337 16.9858C101.848 15.9631 102.57 15.1676 103.501 14.5994C104.439 14.0256 105.547 13.7386 106.825 13.7386C107.888 13.7386 108.828 13.9347 109.646 14.3267C110.47 14.7131 111.126 15.2614 111.615 15.9716C112.104 16.6761 112.382 17.5 112.45 18.4432H109.501C109.382 17.8125 109.098 17.2869 108.649 16.8665C108.206 16.4403 107.612 16.2273 106.868 16.2273C106.237 16.2273 105.683 16.3977 105.206 16.7386C104.729 17.0739 104.357 17.5568 104.089 18.1875C103.828 18.8182 103.697 19.5739 103.697 20.4545C103.697 21.3466 103.828 22.1136 104.089 22.7557C104.351 23.392 104.717 23.8835 105.189 24.2301C105.666 24.571 106.226 24.7415 106.868 24.7415C107.322 24.7415 107.729 24.6562 108.087 24.4858C108.45 24.3097 108.754 24.0568 108.999 23.7273C109.243 23.3977 109.411 22.9972 109.501 22.5256H112.45C112.376 23.4517 112.104 24.2727 111.632 24.9886C111.161 25.6989 110.518 26.2557 109.706 26.6591C108.893 27.0568 107.939 27.2557 106.842 27.2557ZM117.796 22.892L117.788 19.1676H118.282L122.987 13.9091H126.592L120.805 20.3523H120.165L117.796 22.892ZM114.984 27V9.54545H118.069V27H114.984ZM123.2 27L118.938 21.0426L121.018 18.8693L126.89 27H123.2ZM135.926 18.4602V21H128.068V18.4602H135.926ZM142.469 9.54545V27H139.308V9.54545H142.469ZM152.294 13.9091V16.2955H144.768V13.9091H152.294ZM146.626 10.7727H149.712V23.0625C149.712 23.4773 149.774 23.7955 149.899 24.017C150.03 24.233 150.2 24.3807 150.411 24.4602C150.621 24.5398 150.854 24.5795 151.109 24.5795C151.303 24.5795 151.479 24.5653 151.638 24.5369C151.803 24.5085 151.928 24.483 152.013 24.4602L152.533 26.8722C152.368 26.929 152.132 26.9915 151.825 27.0597C151.524 27.1278 151.155 27.1676 150.717 27.179C149.945 27.2017 149.249 27.0852 148.629 26.8295C148.01 26.5682 147.518 26.1648 147.155 25.6193C146.797 25.0739 146.621 24.392 146.626 23.5739V10.7727Z" fill="black"/>
<path d="M63.8864 48H62.4091L66.6818 36.3636H68.1364L72.4091 48H70.9318L67.4545 38.2045H67.3636L63.8864 48ZM64.4318 43.4545H70.3864V44.7045H64.4318V43.4545ZM77.2884 39.2727V40.4091H72.7656V39.2727H77.2884ZM74.0838 37.1818H75.4247V45.5C75.4247 45.8788 75.4796 46.1629 75.5895 46.3523C75.7031 46.5379 75.8471 46.6629 76.0213 46.7273C76.1993 46.7879 76.3868 46.8182 76.5838 46.8182C76.7315 46.8182 76.8527 46.8106 76.9474 46.7955C77.0421 46.7765 77.1179 46.7614 77.1747 46.75L77.4474 47.9545C77.3565 47.9886 77.2296 48.0227 77.0668 48.0568C76.9039 48.0947 76.6974 48.1136 76.4474 48.1136C76.0687 48.1136 75.6974 48.0322 75.3338 47.8693C74.974 47.7064 74.6747 47.4583 74.4361 47.125C74.2012 46.7917 74.0838 46.3712 74.0838 45.8636V37.1818ZM83.1009 39.2727V40.4091H78.5781V39.2727H83.1009ZM79.8963 37.1818H81.2372V45.5C81.2372 45.8788 81.2921 46.1629 81.402 46.3523C81.5156 46.5379 81.6596 46.6629 81.8338 46.7273C82.0118 46.7879 82.1993 46.8182 82.3963 46.8182C82.544 46.8182 82.6652 46.8106 82.7599 46.7955C82.8546 46.7765 82.9304 46.7614 82.9872 46.75L83.2599 47.9545C83.169 47.9886 83.0421 48.0227 82.8793 48.0568C82.7164 48.0947 82.5099 48.1136 82.2599 48.1136C81.8812 48.1136 81.5099 48.0322 81.1463 47.8693C80.7865 47.7064 80.4872 47.4583 80.2486 47.125C80.0137 46.7917 79.8963 46.3712 79.8963 45.8636V37.1818ZM88.6832 48.1818C87.8423 48.1818 87.117 47.9962 86.5071 47.625C85.901 47.25 85.4332 46.7273 85.1037 46.0568C84.7779 45.3826 84.6151 44.5985 84.6151 43.7045C84.6151 42.8106 84.7779 42.0227 85.1037 41.3409C85.4332 40.6553 85.8916 40.1212 86.4787 39.7386C87.0696 39.3523 87.759 39.1591 88.5469 39.1591C89.0014 39.1591 89.4503 39.2348 89.8935 39.3864C90.3366 39.5379 90.7401 39.7841 91.1037 40.125C91.4673 40.4621 91.7571 40.9091 91.973 41.4659C92.1889 42.0227 92.2969 42.7083 92.2969 43.5227V44.0909H85.5696V42.9318H90.9332C90.9332 42.4394 90.8348 42 90.6378 41.6136C90.4446 41.2273 90.1681 40.9223 89.8082 40.6989C89.4522 40.4754 89.0317 40.3636 88.5469 40.3636C88.0128 40.3636 87.5507 40.4962 87.1605 40.7614C86.7741 41.0227 86.4768 41.3636 86.2685 41.7841C86.0601 42.2045 85.956 42.6553 85.956 43.1364V43.9091C85.956 44.5682 86.0696 45.1269 86.2969 45.5852C86.5279 46.0398 86.848 46.3864 87.2571 46.625C87.6662 46.8598 88.1416 46.9773 88.6832 46.9773C89.0355 46.9773 89.3537 46.928 89.6378 46.8295C89.9257 46.7273 90.1738 46.5758 90.3821 46.375C90.5904 46.1705 90.7514 45.9167 90.8651 45.6136L92.1605 45.9773C92.0241 46.4167 91.795 46.803 91.473 47.1364C91.151 47.4659 90.7533 47.7235 90.2798 47.9091C89.8063 48.0909 89.2741 48.1818 88.6832 48.1818ZM95.6776 42.75V48H94.3366V39.2727H95.6321V40.6364H95.7457C95.9503 40.1932 96.2609 39.8371 96.6776 39.5682C97.0942 39.2955 97.6321 39.1591 98.2912 39.1591C98.8821 39.1591 99.3991 39.2803 99.8423 39.5227C100.286 39.7614 100.63 40.125 100.876 40.6136C101.123 41.0985 101.246 41.7121 101.246 42.4545V48H99.9048V42.5455C99.9048 41.8598 99.7268 41.3258 99.3707 40.9432C99.0147 40.5568 98.526 40.3636 97.9048 40.3636C97.4768 40.3636 97.0942 40.4564 96.7571 40.642C96.4238 40.8277 96.1605 41.0985 95.9673 41.4545C95.7741 41.8106 95.6776 42.2424 95.6776 42.75ZM106.991 48.1818C106.264 48.1818 105.622 47.9981 105.065 47.6307C104.509 47.2595 104.073 46.7367 103.759 46.0625C103.444 45.3845 103.287 44.5833 103.287 43.6591C103.287 42.7424 103.444 41.947 103.759 41.2727C104.073 40.5985 104.51 40.0777 105.071 39.7102C105.632 39.3428 106.279 39.1591 107.014 39.1591C107.582 39.1591 108.031 39.2538 108.361 39.4432C108.694 39.6288 108.948 39.8409 109.122 40.0795C109.3 40.3144 109.438 40.5076 109.537 40.6591H109.651V36.3636H110.991V48H109.696V46.6591H109.537C109.438 46.8182 109.298 47.0189 109.116 47.2614C108.935 47.5 108.675 47.714 108.338 47.9034C108.001 48.089 107.552 48.1818 106.991 48.1818ZM107.173 46.9773C107.711 46.9773 108.166 46.8371 108.537 46.5568C108.908 46.2727 109.19 45.8807 109.384 45.3807C109.577 44.8769 109.673 44.2955 109.673 43.6364C109.673 42.9848 109.579 42.4148 109.389 41.9261C109.2 41.4337 108.92 41.0511 108.548 40.7784C108.177 40.5019 107.719 40.3636 107.173 40.3636C106.605 40.3636 106.132 40.5095 105.753 40.8011C105.378 41.089 105.096 41.4811 104.906 41.9773C104.721 42.4697 104.628 43.0227 104.628 43.6364C104.628 44.2576 104.723 44.822 104.912 45.3295C105.105 45.8333 105.389 46.2348 105.764 46.5341C106.143 46.8295 106.613 46.9773 107.173 46.9773ZM116.202 48.2045C115.649 48.2045 115.147 48.1004 114.696 47.892C114.245 47.6799 113.887 47.375 113.622 46.9773C113.357 46.5758 113.224 46.0909 113.224 45.5227C113.224 45.0227 113.323 44.6174 113.52 44.3068C113.717 43.9924 113.98 43.7462 114.31 43.5682C114.639 43.3902 115.003 43.2576 115.401 43.1705C115.802 43.0795 116.205 43.0076 116.611 42.9545C117.141 42.8864 117.571 42.8352 117.901 42.8011C118.234 42.7633 118.476 42.7008 118.628 42.6136C118.783 42.5265 118.861 42.375 118.861 42.1591V42.1136C118.861 41.553 118.707 41.1174 118.401 40.8068C118.098 40.4962 117.637 40.3409 117.02 40.3409C116.38 40.3409 115.878 40.4811 115.514 40.7614C115.151 41.0417 114.895 41.3409 114.747 41.6591L113.474 41.2045C113.702 40.6742 114.005 40.2614 114.384 39.9659C114.766 39.6667 115.183 39.4583 115.634 39.3409C116.088 39.2197 116.535 39.1591 116.974 39.1591C117.255 39.1591 117.577 39.1932 117.94 39.2614C118.308 39.3258 118.662 39.4602 119.003 39.6648C119.348 39.8693 119.634 40.178 119.861 40.5909C120.088 41.0038 120.202 41.5568 120.202 42.25V48H118.861V46.8182H118.793C118.702 47.0076 118.55 47.2102 118.338 47.4261C118.126 47.642 117.844 47.8258 117.491 47.9773C117.139 48.1288 116.709 48.2045 116.202 48.2045ZM116.406 47C116.937 47 117.384 46.8958 117.747 46.6875C118.115 46.4792 118.391 46.2102 118.577 45.8807C118.766 45.5511 118.861 45.2045 118.861 44.8409V43.6136C118.804 43.6818 118.679 43.7443 118.486 43.8011C118.296 43.8542 118.077 43.9015 117.827 43.9432C117.58 43.9811 117.34 44.0152 117.105 44.0455C116.874 44.072 116.687 44.0947 116.543 44.1136C116.194 44.1591 115.868 44.233 115.565 44.3352C115.266 44.4337 115.024 44.5833 114.838 44.7841C114.656 44.9811 114.565 45.25 114.565 45.5909C114.565 46.0568 114.738 46.4091 115.082 46.6477C115.431 46.8826 115.872 47 116.406 47ZM123.99 42.75V48H122.649V39.2727H123.945V40.6364H124.058C124.263 40.1932 124.573 39.8371 124.99 39.5682C125.407 39.2955 125.945 39.1591 126.604 39.1591C127.195 39.1591 127.712 39.2803 128.155 39.5227C128.598 39.7614 128.943 40.125 129.189 40.6136C129.435 41.0985 129.558 41.7121 129.558 42.4545V48H128.217V42.5455C128.217 41.8598 128.039 41.3258 127.683 40.9432C127.327 40.5568 126.839 40.3636 126.217 40.3636C125.789 40.3636 125.407 40.4564 125.07 40.642C124.736 40.8277 124.473 41.0985 124.28 41.4545C124.087 41.8106 123.99 42.2424 123.99 42.75ZM135.554 48.1818C134.736 48.1818 134.031 47.9886 133.44 47.6023C132.849 47.2159 132.395 46.6837 132.077 46.0057C131.759 45.3277 131.599 44.553 131.599 43.6818C131.599 42.7955 131.762 42.0133 132.088 41.3352C132.418 40.6534 132.876 40.1212 133.463 39.7386C134.054 39.3523 134.743 39.1591 135.531 39.1591C136.145 39.1591 136.698 39.2727 137.19 39.5C137.683 39.7273 138.086 40.0455 138.401 40.4545C138.715 40.8636 138.91 41.3409 138.986 41.8864H137.645C137.543 41.4886 137.315 41.1364 136.963 40.8295C136.615 40.5189 136.145 40.3636 135.554 40.3636C135.031 40.3636 134.573 40.5 134.179 40.7727C133.789 41.0417 133.484 41.4223 133.264 41.9148C133.048 42.4034 132.94 42.9773 132.94 43.6364C132.94 44.3106 133.046 44.8977 133.259 45.3977C133.474 45.8977 133.777 46.286 134.168 46.5625C134.562 46.839 135.024 46.9773 135.554 46.9773C135.902 46.9773 136.219 46.9167 136.503 46.7955C136.787 46.6742 137.027 46.5 137.224 46.2727C137.421 46.0455 137.562 45.7727 137.645 45.4545H138.986C138.91 45.9697 138.723 46.4337 138.423 46.8466C138.128 47.2557 137.736 47.5814 137.247 47.8239C136.762 48.0625 136.198 48.1818 135.554 48.1818ZM144.605 48.1818C143.764 48.1818 143.039 47.9962 142.429 47.625C141.823 47.25 141.355 46.7273 141.026 46.0568C140.7 45.3826 140.537 44.5985 140.537 43.7045C140.537 42.8106 140.7 42.0227 141.026 41.3409C141.355 40.6553 141.813 40.1212 142.401 39.7386C142.991 39.3523 143.681 39.1591 144.469 39.1591C144.923 39.1591 145.372 39.2348 145.815 39.3864C146.259 39.5379 146.662 39.7841 147.026 40.125C147.389 40.4621 147.679 40.9091 147.895 41.4659C148.111 42.0227 148.219 42.7083 148.219 43.5227V44.0909H141.491V42.9318H146.855C146.855 42.4394 146.757 42 146.56 41.6136C146.366 41.2273 146.09 40.9223 145.73 40.6989C145.374 40.4754 144.954 40.3636 144.469 40.3636C143.935 40.3636 143.473 40.4962 143.082 40.7614C142.696 41.0227 142.399 41.3636 142.19 41.7841C141.982 42.2045 141.878 42.6553 141.878 43.1364V43.9091C141.878 44.5682 141.991 45.1269 142.219 45.5852C142.45 46.0398 142.77 46.3864 143.179 46.625C143.588 46.8598 144.063 46.9773 144.605 46.9773C144.957 46.9773 145.276 46.928 145.56 46.8295C145.848 46.7273 146.096 46.5758 146.304 46.375C146.512 46.1705 146.673 45.9167 146.787 45.6136L148.082 45.9773C147.946 46.4167 147.717 46.803 147.395 47.1364C147.073 47.4659 146.675 47.7235 146.202 47.9091C145.728 48.0909 145.196 48.1818 144.605 48.1818ZM154.304 37.6136V36.3636H163.031V37.6136H159.372V48H157.963V37.6136H154.304ZM164.118 48V39.2727H165.413V40.5909H165.504C165.663 40.1591 165.951 39.8087 166.368 39.5398C166.785 39.2708 167.254 39.1364 167.777 39.1364C167.875 39.1364 167.999 39.1383 168.146 39.142C168.294 39.1458 168.406 39.1515 168.482 39.1591V40.5227C168.436 40.5114 168.332 40.4943 168.169 40.4716C168.01 40.4451 167.841 40.4318 167.663 40.4318C167.239 40.4318 166.86 40.5208 166.527 40.6989C166.197 40.8731 165.936 41.1155 165.743 41.4261C165.554 41.733 165.459 42.0833 165.459 42.4773V48H164.118ZM172.639 48.2045C172.086 48.2045 171.584 48.1004 171.134 47.892C170.683 47.6799 170.325 47.375 170.06 46.9773C169.795 46.5758 169.662 46.0909 169.662 45.5227C169.662 45.0227 169.76 44.6174 169.957 44.3068C170.154 43.9924 170.418 43.7462 170.747 43.5682C171.077 43.3902 171.44 43.2576 171.838 43.1705C172.24 43.0795 172.643 43.0076 173.048 42.9545C173.579 42.8864 174.009 42.8352 174.338 42.8011C174.671 42.7633 174.914 42.7008 175.065 42.6136C175.221 42.5265 175.298 42.375 175.298 42.1591V42.1136C175.298 41.553 175.145 41.1174 174.838 40.8068C174.535 40.4962 174.075 40.3409 173.457 40.3409C172.817 40.3409 172.315 40.4811 171.952 40.7614C171.588 41.0417 171.332 41.3409 171.185 41.6591L169.912 41.2045C170.139 40.6742 170.442 40.2614 170.821 39.9659C171.204 39.6667 171.62 39.4583 172.071 39.3409C172.526 39.2197 172.973 39.1591 173.412 39.1591C173.692 39.1591 174.014 39.1932 174.378 39.2614C174.745 39.3258 175.099 39.4602 175.44 39.6648C175.785 39.8693 176.071 40.178 176.298 40.5909C176.526 41.0038 176.639 41.5568 176.639 42.25V48H175.298V46.8182H175.23C175.139 47.0076 174.988 47.2102 174.776 47.4261C174.563 47.642 174.281 47.8258 173.929 47.9773C173.577 48.1288 173.147 48.2045 172.639 48.2045ZM172.844 47C173.374 47 173.821 46.8958 174.185 46.6875C174.552 46.4792 174.829 46.2102 175.014 45.8807C175.204 45.5511 175.298 45.2045 175.298 44.8409V43.6136C175.241 43.6818 175.116 43.7443 174.923 43.8011C174.734 43.8542 174.514 43.9015 174.264 43.9432C174.018 43.9811 173.777 44.0152 173.543 44.0455C173.312 44.072 173.124 44.0947 172.98 44.1136C172.632 44.1591 172.306 44.233 172.003 44.3352C171.704 44.4337 171.461 44.5833 171.276 44.7841C171.094 44.9811 171.003 45.25 171.003 45.5909C171.003 46.0568 171.175 46.4091 171.52 46.6477C171.868 46.8826 172.31 47 172.844 47ZM182.632 48.1818C181.814 48.1818 181.109 47.9886 180.518 47.6023C179.928 47.2159 179.473 46.6837 179.155 46.0057C178.837 45.3277 178.678 44.553 178.678 43.6818C178.678 42.7955 178.84 42.0133 179.166 41.3352C179.496 40.6534 179.954 40.1212 180.541 39.7386C181.132 39.3523 181.821 39.1591 182.609 39.1591C183.223 39.1591 183.776 39.2727 184.268 39.5C184.761 39.7273 185.164 40.0455 185.479 40.4545C185.793 40.8636 185.988 41.3409 186.064 41.8864H184.723C184.621 41.4886 184.393 41.1364 184.041 40.8295C183.693 40.5189 183.223 40.3636 182.632 40.3636C182.109 40.3636 181.651 40.5 181.257 40.7727C180.867 41.0417 180.562 41.4223 180.342 41.9148C180.126 42.4034 180.018 42.9773 180.018 43.6364C180.018 44.3106 180.125 44.8977 180.337 45.3977C180.553 45.8977 180.856 46.286 181.246 46.5625C181.64 46.839 182.102 46.9773 182.632 46.9773C182.981 46.9773 183.297 46.9167 183.581 46.7955C183.865 46.6742 184.106 46.5 184.303 46.2727C184.5 46.0455 184.64 45.7727 184.723 45.4545H186.064C185.988 45.9697 185.801 46.4337 185.501 46.8466C185.206 47.2557 184.814 47.5814 184.325 47.8239C183.84 48.0625 183.276 48.1818 182.632 48.1818ZM189.274 44.8182L189.251 43.1591H189.524L193.342 39.2727H195.001L190.933 43.3864H190.82L189.274 44.8182ZM188.024 48V36.3636H189.365V48H188.024ZM193.57 48L190.161 43.6818L191.115 42.75L195.274 48H193.57ZM200.027 48.1818C199.186 48.1818 198.461 47.9962 197.851 47.625C197.245 47.25 196.777 46.7273 196.447 46.0568C196.122 45.3826 195.959 44.5985 195.959 43.7045C195.959 42.8106 196.122 42.0227 196.447 41.3409C196.777 40.6553 197.235 40.1212 197.822 39.7386C198.413 39.3523 199.103 39.1591 199.891 39.1591C200.345 39.1591 200.794 39.2348 201.237 39.3864C201.68 39.5379 202.084 39.7841 202.447 40.125C202.811 40.4621 203.101 40.9091 203.317 41.4659C203.533 42.0227 203.641 42.7083 203.641 43.5227V44.0909H196.913V42.9318H202.277C202.277 42.4394 202.179 42 201.982 41.6136C201.788 41.2273 201.512 40.9223 201.152 40.6989C200.796 40.4754 200.375 40.3636 199.891 40.3636C199.357 40.3636 198.894 40.4962 198.504 40.7614C198.118 41.0227 197.821 41.3636 197.612 41.7841C197.404 42.2045 197.3 42.6553 197.3 43.1364V43.9091C197.3 44.5682 197.413 45.1269 197.641 45.5852C197.872 46.0398 198.192 46.3864 198.601 46.625C199.01 46.8598 199.485 46.9773 200.027 46.9773C200.379 46.9773 200.697 46.928 200.982 46.8295C201.269 46.7273 201.518 46.5758 201.726 46.375C201.934 46.1705 202.095 45.9167 202.209 45.6136L203.504 45.9773C203.368 46.4167 203.139 46.803 202.817 47.1364C202.495 47.4659 202.097 47.7235 201.624 47.9091C201.15 48.0909 200.618 48.1818 200.027 48.1818ZM205.68 48V39.2727H206.976V40.5909H207.067C207.226 40.1591 207.514 39.8087 207.93 39.5398C208.347 39.2708 208.817 39.1364 209.339 39.1364C209.438 39.1364 209.561 39.1383 209.709 39.142C209.857 39.1458 209.968 39.1515 210.044 39.1591V40.5227C209.999 40.5114 209.894 40.4943 209.732 40.4716C209.572 40.4451 209.404 40.4318 209.226 40.4318C208.802 40.4318 208.423 40.5208 208.089 40.6989C207.76 40.8731 207.499 41.1155 207.305 41.4261C207.116 41.733 207.021 42.0833 207.021 42.4773V48H205.68Z" fill="#4B91F1"/>
</svg>
