<svg width="486" height="138" viewBox="0 0 486 138" fill="none" xmlns="http://www.w3.org/2000/svg">
<rect width="486" height="137.077" rx="20" fill="#4B91F1"/>
<path d="M201.148 53.0909H207.472V75.8977C207.472 78.3977 206.881 80.5966 205.699 82.4943C204.529 84.392 202.881 85.875 200.756 86.9432C198.631 88 196.148 88.5284 193.307 88.5284C190.455 88.5284 187.966 88 185.841 86.9432C183.716 85.875 182.069 84.392 180.898 82.4943C179.728 80.5966 179.143 78.3977 179.143 75.8977V53.0909H185.466V75.3693C185.466 76.8239 185.785 78.1193 186.421 79.2557C187.069 80.392 187.978 81.2841 189.148 81.9318C190.319 82.5682 191.705 82.8864 193.307 82.8864C194.91 82.8864 196.296 82.5682 197.466 81.9318C198.648 81.2841 199.557 80.392 200.194 79.2557C200.83 78.1193 201.148 76.8239 201.148 75.3693V53.0909ZM214.073 97.8182V61.8182H220.141V66.1477H220.499C220.817 65.5114 221.266 64.8352 221.846 64.1193C222.425 63.392 223.209 62.7727 224.198 62.2614C225.187 61.7386 226.448 61.4773 227.982 61.4773C230.005 61.4773 231.829 61.9943 233.454 63.0284C235.09 64.0511 236.386 65.5682 237.34 67.5795C238.306 69.5795 238.789 72.0341 238.789 74.9432C238.789 77.8182 238.317 80.2614 237.374 82.2727C236.431 84.2841 235.147 85.8182 233.522 86.875C231.897 87.9318 230.056 88.4602 227.999 88.4602C226.499 88.4602 225.255 88.2102 224.266 87.7102C223.278 87.2102 222.482 86.608 221.88 85.9034C221.289 85.1875 220.829 84.5114 220.499 83.875H220.243V97.8182H214.073ZM220.124 74.9091C220.124 76.6023 220.363 78.0852 220.84 79.358C221.329 80.6307 222.028 81.625 222.937 82.3409C223.857 83.0455 224.971 83.3977 226.278 83.3977C227.641 83.3977 228.783 83.0341 229.704 82.3068C230.624 81.5682 231.317 80.5625 231.783 79.2898C232.261 78.0057 232.499 76.5455 232.499 74.9091C232.499 73.2841 232.266 71.8409 231.8 70.5795C231.334 69.3182 230.641 68.3295 229.721 67.6136C228.8 66.8977 227.653 66.5398 226.278 66.5398C224.959 66.5398 223.84 66.8864 222.92 67.5795C221.999 68.2727 221.3 69.2443 220.823 70.4943C220.357 71.7443 220.124 73.2159 220.124 74.9091ZM250.243 53.0909V88H244.073V53.0909H250.243ZM268.009 88.5114C265.452 88.5114 263.236 87.9489 261.361 86.8239C259.486 85.6989 258.032 84.125 256.998 82.1023C255.975 80.0795 255.464 77.7159 255.464 75.0114C255.464 72.3068 255.975 69.9375 256.998 67.9034C258.032 65.8693 259.486 64.2898 261.361 63.1648C263.236 62.0398 265.452 61.4773 268.009 61.4773C270.566 61.4773 272.782 62.0398 274.657 63.1648C276.532 64.2898 277.981 65.8693 279.003 67.9034C280.038 69.9375 280.555 72.3068 280.555 75.0114C280.555 77.7159 280.038 80.0795 279.003 82.1023C277.981 84.125 276.532 85.6989 274.657 86.8239C272.782 87.9489 270.566 88.5114 268.009 88.5114ZM268.043 83.5682C269.43 83.5682 270.589 83.1875 271.52 82.4261C272.452 81.6534 273.145 80.6193 273.6 79.3239C274.066 78.0284 274.299 76.5852 274.299 74.9943C274.299 73.392 274.066 71.9432 273.6 70.6477C273.145 69.3409 272.452 68.3011 271.52 67.5284C270.589 66.7557 269.43 66.3693 268.043 66.3693C266.623 66.3693 265.441 66.7557 264.498 67.5284C263.566 68.3011 262.867 69.3409 262.401 70.6477C261.947 71.9432 261.719 73.392 261.719 74.9943C261.719 76.5852 261.947 78.0284 262.401 79.3239C262.867 80.6193 263.566 81.6534 264.498 82.4261C265.441 83.1875 266.623 83.5682 268.043 83.5682ZM293.326 88.5284C291.667 88.5284 290.172 88.233 288.843 87.642C287.525 87.0398 286.479 86.1534 285.707 84.983C284.945 83.8125 284.565 82.3693 284.565 80.6534C284.565 79.1761 284.837 77.9545 285.383 76.9886C285.928 76.0227 286.672 75.25 287.616 74.6705C288.559 74.0909 289.621 73.6534 290.803 73.358C291.996 73.0511 293.229 72.8295 294.502 72.6932C296.036 72.5341 297.28 72.392 298.235 72.267C299.19 72.1307 299.883 71.9261 300.315 71.6534C300.758 71.3693 300.979 70.9318 300.979 70.3409V70.2386C300.979 68.9545 300.599 67.9602 299.837 67.2557C299.076 66.5511 297.979 66.1989 296.547 66.1989C295.036 66.1989 293.837 66.5284 292.951 67.1875C292.076 67.8466 291.485 68.625 291.178 69.5227L285.417 68.7045C285.871 67.1136 286.621 65.7841 287.667 64.7159C288.712 63.6364 289.991 62.8295 291.502 62.2955C293.013 61.75 294.684 61.4773 296.513 61.4773C297.775 61.4773 299.03 61.625 300.28 61.9205C301.53 62.2159 302.672 62.7045 303.707 63.3864C304.741 64.0568 305.57 64.9716 306.195 66.1307C306.832 67.2898 307.15 68.7386 307.15 70.4773V88H301.218V84.4034H301.013C300.638 85.1307 300.11 85.8125 299.428 86.4489C298.758 87.0739 297.911 87.5795 296.888 87.9659C295.877 88.3409 294.69 88.5284 293.326 88.5284ZM294.928 83.9943C296.167 83.9943 297.241 83.75 298.15 83.2614C299.059 82.7614 299.758 82.1023 300.246 81.2841C300.746 80.4659 300.996 79.5739 300.996 78.608V75.5227C300.803 75.6818 300.474 75.8295 300.008 75.9659C299.553 76.1023 299.042 76.2216 298.474 76.3239C297.905 76.4261 297.343 76.517 296.786 76.5966C296.229 76.6761 295.746 76.7443 295.337 76.8011C294.417 76.9261 293.593 77.1307 292.866 77.4148C292.138 77.6989 291.565 78.0966 291.144 78.608C290.724 79.108 290.513 79.7557 290.513 80.5511C290.513 81.6875 290.928 82.5455 291.758 83.125C292.587 83.7045 293.644 83.9943 294.928 83.9943ZM323.07 88.4602C321.013 88.4602 319.172 87.9318 317.547 86.875C315.922 85.8182 314.638 84.2841 313.695 82.2727C312.752 80.2614 312.28 77.8182 312.28 74.9432C312.28 72.0341 312.758 69.5795 313.712 67.5795C314.678 65.5682 315.979 64.0511 317.616 63.0284C319.252 61.9943 321.076 61.4773 323.087 61.4773C324.621 61.4773 325.883 61.7386 326.871 62.2614C327.86 62.7727 328.644 63.392 329.224 64.1193C329.803 64.8352 330.252 65.5114 330.57 66.1477H330.826V53.0909H337.013V88H330.945V83.875H330.57C330.252 84.5114 329.792 85.1875 329.19 85.9034C328.587 86.608 327.792 87.2102 326.803 87.7102C325.815 88.2102 324.57 88.4602 323.07 88.4602ZM324.792 83.3977C326.099 83.3977 327.212 83.0455 328.133 82.3409C329.053 81.625 329.752 80.6307 330.229 79.358C330.707 78.0852 330.945 76.6023 330.945 74.9091C330.945 73.2159 330.707 71.7443 330.229 70.4943C329.763 69.2443 329.07 68.2727 328.15 67.5795C327.241 66.8864 326.121 66.5398 324.792 66.5398C323.417 66.5398 322.269 66.8977 321.349 67.6136C320.428 68.3295 319.735 69.3182 319.269 70.5795C318.803 71.8409 318.57 73.2841 318.57 74.9091C318.57 76.5455 318.803 78.0057 319.269 79.2898C319.746 80.5625 320.445 81.5682 321.366 82.3068C322.297 83.0341 323.44 83.3977 324.792 83.3977Z" fill="white"/>
<path d="M82.1672 57.857L87.9607 52.0615L88.0045 80.4603C88.0045 82.1861 89.4036 83.5851 91.1294 83.5851C92.8552 83.5851 94.2542 82.1861 94.2542 80.4603L94.2105 52.0969L99.9707 57.8571C101.17 59.0985 103.148 59.1329 104.389 57.9339C105.631 56.7349 105.665 54.7567 104.466 53.5153C104.441 53.4893 104.415 53.4637 104.389 53.4386L97.6978 46.7472C94.0368 43.0861 88.1012 43.0861 84.4401 46.7471L84.44 46.7472L77.7487 53.4385C76.5497 54.6798 76.5841 56.6581 77.8254 57.857C79.0364 59.0266 80.9563 59.0266 82.1672 57.857Z" fill="white"/>
<path d="M112.874 74.209C111.148 74.209 109.749 75.608 109.749 77.3338V86.898C109.748 87.3681 109.367 87.7489 108.897 87.75H73.1028C72.6327 87.7488 72.2519 87.3681 72.2508 86.898V77.3338C72.2508 75.608 70.8518 74.209 69.126 74.209C67.4002 74.209 66.0011 75.608 66.0011 77.3338V86.898C66.0057 90.8183 69.1826 93.9951 73.1028 93.9997H108.897C112.817 93.9951 115.994 90.8182 115.999 86.898V77.3338C115.999 75.608 114.6 74.209 112.874 74.209Z" fill="white"/>
</svg>
